<svg width="80" height="80" viewBox="0 0 80 80" fill="none" xmlns="http://www.w3.org/2000/svg">
<path fill-rule="evenodd" clip-rule="evenodd" d="M39.9972 10C23.4314 10 10 23.4313 10 40.0009C10 53.2555 18.5951 64.4989 30.5163 68.4677C32.0173 68.7421 32.5642 67.8158 32.5642 67.0202C32.5642 66.3093 32.5384 64.4216 32.5237 61.9187C24.1791 63.7309 22.4184 57.8965 22.4184 57.8965C21.0537 54.4323 19.0868 53.5096 19.0868 53.5096C16.363 51.6477 19.2931 51.6845 19.2931 51.6845C22.3042 51.8982 23.8881 54.7767 23.8881 54.7767C26.564 59.3606 30.9104 58.0365 32.6195 57.2703C32.892 55.331 33.6656 54.0087 34.5238 53.2592C27.8624 52.5022 20.8585 49.9276 20.8585 38.4318C20.8585 35.1573 22.028 32.4795 23.947 30.3818C23.6376 29.6231 22.6081 26.5732 24.2398 22.4424C24.2398 22.4424 26.7593 21.6357 32.4906 25.518C34.8829 24.8531 37.4502 24.5198 40.0009 24.5087C42.548 24.5198 45.1153 24.8531 47.5113 25.518C53.2389 21.6357 55.7528 22.4424 55.7528 22.4424C57.39 26.5732 56.3605 29.6231 56.0511 30.3818C57.9738 32.4795 59.1359 35.1573 59.1359 38.4318C59.1359 49.957 52.121 52.493 45.4375 53.2352C46.5149 54.1616 47.4744 55.9922 47.4744 58.7915C47.4744 62.8009 47.4376 66.0367 47.4376 67.0202C47.4376 67.8231 47.9772 68.7569 49.5003 68.464C61.4123 64.4879 70 53.2518 70 40.0009C70 23.4313 56.5668 10 39.9972 10Z" fill="white"/>
</svg>
