<svg width="80" height="80" viewBox="0 0 80 80" fill="none" xmlns="http://www.w3.org/2000/svg">
<path d="M50.4548 27.1726C47.5466 24.365 43.8476 22.9355 39.7277 22.9355C32.4191 22.9355 26.2328 27.9196 24.0262 34.6165C23.465 36.3165 23.1461 38.1325 23.1461 39.9999C23.1461 41.8673 23.465 43.6832 24.0262 45.3831C26.2328 52.0801 32.4191 57.0642 39.7277 57.0642C43.5033 57.0642 46.7175 56.0597 49.2303 54.3597C52.2022 52.3506 54.1793 49.3499 54.8298 45.8083H39.7277V34.8484H66.1563C66.4879 36.7029 66.6665 38.6348 66.6665 40.6439C66.6665 49.2727 63.6053 56.5363 58.2992 61.4689C53.6563 65.7961 47.3042 68.3332 39.7277 68.3332C28.7584 68.3332 19.2686 61.984 14.6513 52.7242C12.7507 48.8991 11.6665 44.5719 11.6665 39.9999C11.6665 35.428 12.7507 31.1007 14.6512 27.2757C19.2685 18.0158 28.7584 11.6665 39.7277 11.6665C47.2915 11.6665 53.6436 14.4741 58.5033 19.0461L50.4548 27.1726Z" fill="white"/>
</svg>
