<svg width="353" height="89" viewBox="0 0 353 89" fill="none" xmlns="http://www.w3.org/2000/svg">
<path d="M47.7624 18.623C47.7624 16.3555 47.5162 14.3517 45.8992 12.6C43.1368 11.2867 46.4886 11.714 45 10.9697C43.4587 10.1991 45.3772 12.2382 44.0685 10.8791C43.1205 9.89471 42.0745 9.47384 41.2154 8.61483C40.2249 7.62433 38.6139 7.99367 37.6379 7.1204C35.8193 5.49323 33.1829 6.74055 31.1167 5.76182C28.8307 4.67898 25.9474 4.8561 23.4634 4.8561C21.2097 4.8561 18.2084 6.5493 16.8516 8.43369C16.1027 9.47383 15.0126 9.78483 14.3156 10.9697C13.6227 12.1477 12.3937 12.8833 11.8702 14.1397C11.4726 15.0939 9.61216 15.5073 9.51531 16.7663C9.44086 17.7342 9.19813 20.0749 8.29259 20.6609C6.41757 21.8741 4.9967 26.034 4.30743 28.1783C3.32771 31.2264 2.99414 35.004 2.99414 38.1865C2.99414 40.71 3.30709 43.3384 3.40171 45.704C3.52647 48.8229 5.59155 50.5527 6.9793 52.9497C8.49263 55.5637 10.5739 57.5993 13.1835 58.9728C14.3977 59.6118 15.6588 60.3089 16.9422 60.7842C18.6427 61.414 20.1758 61.5159 21.8331 62.0069C23.3131 62.4454 24.3471 63.1391 25.9088 63.1391C27.207 63.1391 28.5052 63.1391 29.8034 63.1391C32.1729 63.1391 36.7201 63.9998 38.8606 63.0485C40.0251 62.5309 42.2261 61.8037 43.0269 60.9201C44.1058 59.7295 45.2477 58.6786 46.695 58.1576C47.8193 57.7529 48.728 55.8982 49.5481 55.0782C50.9942 53.632 52.8897 52.3385 53.1256 50.0967C53.2973 48.4661 54.3484 47.3128 54.3484 45.6134C54.3484 43.8473 54.3484 42.0811 54.3484 40.315C54.3484 37.358 52.4933 37.462 49.7745 37.462C46.5743 37.462 43.3741 37.462 40.1739 37.462C38.0001 37.462 44.5213 37.462 46.695 37.462C50.1979 37.462 57.2398 38.653 59.1487 34.8354C60.0183 33.0962 61.0688 29.5536 62.9074 28.5859C64.7935 27.5932 66.8714 25.1201 68.387 23.6045C68.724 23.2675 70.6246 21.0166 70.6513 21.6572C70.7177 23.2516 70.6513 24.8611 70.6513 26.4575C70.6513 29.7711 71.0589 32.9333 71.0589 36.2392C71.0589 42.1113 71.0589 47.9834 71.0589 53.8555C71.0589 57.2292 72.2816 60.0636 72.2816 63.5466C72.2816 66.082 72.2816 64.035 72.2816 62.7315C72.2816 61.1326 72.1224 59.4324 72.2816 57.8406C72.3614 57.0424 73.0268 56.4782 73.1194 55.599C73.2264 54.5823 73.5991 53.542 73.8213 52.5422C74.0767 51.393 73.8937 50.3223 74.2289 49.191C74.832 47.1555 73.7312 43.4958 75.044 41.8547C75.5598 41.21 75.5422 38.5689 75.5422 37.779C75.5422 36.4018 76.2401 35.006 76.6743 33.7032C77.4521 31.3698 79.3444 28.5308 81.7916 27.5896C83.1761 27.0571 83.9616 25.6877 85.5504 25.6423C87.3863 25.5899 88.3772 24.6046 90.0337 24.1026C92.3103 23.4127 93.962 21.6849 96.2378 20.842C101.4 18.9301 106.238 17.4909 111.816 17.4909C113.175 17.4909 114.533 17.4909 115.892 17.4909C117.823 17.4909 118.297 18.5087 120.058 19.0306C121.21 19.372 123.156 19.9131 124.043 20.7515C124.739 21.4085 125.568 23.691 124.043 24.012C123.216 24.1862 122.854 25.091 122.006 25.2121C121.376 25.302 120.692 25.2348 120.058 25.2348C118.809 25.2348 117.546 25.1754 116.299 25.2348C112.453 25.4179 111.296 28.5082 108.556 30.4426C107.974 30.8533 107.632 32.9404 107.152 33.7032C106.439 34.8347 106.027 36.6714 105.793 38.0507C105.113 42.0566 104.321 46.3886 107.423 49.3721C107.423 54.58 108.809 55.6802 110.113 56.9118C110.442 57.2229 112.713 58.9216 112.966 58.9497C114.646 59.1363 114.406 60.1191 115.892 61.0106C117.186 61.7873 119.242 62.7188 120.483 63.7047C126.697 68.6394 136.385 60.3989 140.663 54.58C143.034 51.3563 143.607 45.8002 143.607 41.8547C143.607 39.4919 143.533 37.5404 142.565 35.4241C141.808 33.768 141.015 32.4643 139.939 30.8502C138.006 27.9512 135.251 25.4497 132.195 23.9215C131.192 23.42 130.249 22.3945 129.161 22.0647C128.129 21.752 126.193 21.176 125.266 20.6609C123.115 19.466 127.154 17.2715 127.893 16.9022C130.374 15.6614 133.786 14.7345 136.588 14.6379C138.345 14.5773 140.001 14.2303 141.795 14.2303C143.939 14.2303 145.801 13.1484 147.773 13.0076C150.241 12.8313 153.246 12.3169 154.113 15.136C154.681 16.9817 154.69 20.9781 156.015 22.3817C157.174 23.6084 157.958 25.6336 158.37 27.3632C158.716 28.8155 159.818 30.0748 160.227 31.5748C161.231 35.2551 163.398 38.6463 164.303 42.4434C165.241 46.3862 167.294 49.6628 168.469 53.4479C168.929 54.9298 169.718 56.8275 170.507 58.1576C170.842 58.7235 171.041 62.1497 172.228 61.0106C173.828 59.4738 174.102 57.2 174.764 55.214C175.416 53.2576 176.103 52.1807 176.213 50.0967C176.316 48.1368 176.961 45.4729 177.435 43.5756C177.84 41.9587 178.283 38.7719 179.156 37.462C180.21 35.8816 179.718 34.2159 181.013 32.6616C181.971 31.5115 182.513 29.2225 183.051 27.7708C183.477 26.6214 184.745 24.7467 185.677 23.9215C186.863 22.873 187.983 26.4886 188.032 27.5443C188.121 29.4589 189.226 31.6492 189.572 33.6127C189.929 35.6378 191.278 38.2544 192.425 39.9527C194.284 42.7038 194.818 46.4549 196.365 49.4627C198.206 53.0433 199.359 57.1109 201.256 60.6936C201.407 60.9791 202.761 62.9626 202.954 63.0485C203.804 63.4264 204.798 60.4503 205.06 59.9691C205.632 58.9164 206.328 56.3482 206.373 55.0782C206.503 51.432 209 47.2663 209 43.5756C209 39.9412 210.416 37.8819 211.268 34.4731C212.237 30.5979 212.673 26.6907 213.845 22.8799C213.845 21.159 213.376 21.7544 213.845 21.159C215.311 19.2987 216.644 17.398 217.966 15.453C219.114 13.7657 220.416 12.2968 221.544 10.5621C223.132 8.1184 226.117 8.52426 228.609 8.52426C230.115 8.52426 230.736 7.81319 232.141 7.70911C233.826 7.58431 234.496 6.34173 234.496 8.93183C234.496 10.7584 234.496 12.5849 234.496 14.4114C234.496 28.3444 234.496 42.2774 234.496 56.2103C234.496 58.7161 234.496 61.222 234.496 63.7278C234.496 65.7728 234.675 70.0189 236.715 71.2C239.155 72.6128 244.047 71.6981 246.813 71.6981C249.259 71.6981 251.704 71.6981 254.15 71.6981C255.827 71.6981 257.92 72.3424 258.226 70.2942C258.807 66.399 258.682 62.2198 258.95 58.3388C259.243 54.0887 259.358 49.8933 259.358 45.6134C259.358 37.6228 256.505 30.2353 256.505 22.2459C256.505 19.1571 256.505 24.8898 256.505 25.8235C256.505 27.967 256.505 30.1105 256.505 32.2541C256.505 33.0814 255.99 36.2911 256.595 36.9638C257.231 37.6708 258.241 35.7421 258.543 35.4241C261.091 32.7343 262.508 28.9891 264.747 26.0046C267.612 22.184 272.063 20.7187 276.385 19.4382C279.873 18.4048 282.783 19.8802 285.035 22.3817C286.354 23.8479 288.512 26.3901 289.201 27.9972C290.18 30.2817 291.908 31.9796 292.462 34.4731C292.952 36.6789 293.934 38.8543 294.001 41.1301C294.109 44.7952 295.632 48.26 295.632 51.9082C295.632 54.7008 295.632 57.4934 295.632 60.2861C295.632 61.7773 295.522 63.2393 295.949 64.6788C296.344 66.0135 295.96 63.5504 296.22 62.8673C297.234 60.2057 297.927 57.0191 298.077 54.1725C298.17 52.4052 298.892 50.6705 298.892 48.874C298.892 47.222 297.974 46.4147 297.353 44.7983C295.658 40.3913 294.001 36.2611 294.001 31.4389C294.001 29.8558 293.957 28.2662 294.001 26.6839C294.044 25.1315 295.392 23.5337 296.22 22.2912C297.459 20.4335 299.592 19.2914 300.84 17.355C302.104 15.3926 304.435 13.3469 306.229 11.8754C310.549 8.33034 314.731 5.74333 319.678 3.40695C322.998 1.83961 327.433 4.20384 330.592 4.76553C333.38 5.2611 336.037 6.19705 338.608 7.48268C340.612 8.48445 343.067 8.58727 344.722 10.1546C346.603 11.9368 346.62 14.926 347.303 17.4003C347.616 18.5369 347.76 20.5871 347.801 21.6572C347.913 24.5757 347.823 27.4445 348.299 30.3521C348.652 32.5094 349.024 34.4497 349.024 36.6468C349.024 40.2467 349.024 37.3337 349.024 35.3335C349.024 32.8716 350.104 27.3938 346.578 26.8651C345.821 26.7515 345.068 26.0975 344.314 25.8461C343.476 25.5667 342.606 25.797 341.778 25.5518C340.481 25.1675 339.495 24.3902 338.2 24.1026C335.278 23.4533 331.718 22.7893 328.736 22.7893C324.991 22.7893 322.89 24.545 320.086 26.548C317.106 28.6769 315.417 30.4348 313.565 33.5221C311.854 36.3735 312.342 40.0541 312.342 43.2585C312.342 45.2964 312.342 47.3343 312.342 49.3721C312.342 51.8361 313.909 53.88 315.014 56.0292C318.104 62.0383 325.722 61.5088 331.589 61.5088C332.632 61.5088 334.884 61.9574 335.664 61.2371C337.038 59.9694 338.667 59.2735 340.148 58.2482C341.891 57.0411 342.979 55.1802 344.54 53.8555C345.762 52.8193 347.743 49.7809 347.801 48.1494C347.928 44.6054 347.507 40.9931 347.801 37.462C347.965 35.4941 349.024 41.2838 349.024 43.2585C349.024 44.9821 348.751 46.9669 349.114 48.6476C349.935 52.4408 349.431 56.7264 349.431 60.6031C349.431 64.277 347.935 67.1742 347.801 70.7924C347.738 72.4923 346.221 73.8814 346.171 75.5927C346.132 76.9039 345.394 77.86 344.54 78.808C343.941 79.474 343.609 80.2341 342.91 80.8459C342.333 81.3511 341.635 80.8925 341.099 81.5704C340.104 82.8268 337.875 83.0738 336.48 83.8347C332.683 85.9054 328.019 85.5556 323.845 85.5556C321.333 85.5556 318.707 81.3613 317.641 79.442" stroke="white" stroke-width="5" stroke-linecap="round"/>
</svg>
