<svg width="356" height="90" viewBox="0 0 356 90" fill="none" xmlns="http://www.w3.org/2000/svg">
<path d="M31.0292 68.35C26.8292 68.35 22.8842 67.615 19.1942 66.145C15.5342 64.645 12.3092 62.455 9.51922 59.575C6.75922 56.695 4.59922 53.17 3.03922 49C1.47922 44.8 0.699219 40 0.699219 34.6C0.699219 27.52 2.01922 21.475 4.65922 16.465C7.29922 11.425 10.9142 7.56997 15.5042 4.89997C20.0942 2.19997 25.2692 0.849976 31.0292 0.849976C39.0092 0.849976 45.3242 2.70998 49.9742 6.42997C54.6542 10.12 57.8192 15.31 59.4692 22L48.3992 23.755C47.1692 19.915 45.1592 16.855 42.3692 14.575C39.5792 12.265 36.0242 11.11 31.7042 11.11C27.3542 11.05 23.7392 11.995 20.8592 13.945C17.9792 15.895 15.8042 18.64 14.3342 22.18C12.8942 25.72 12.1742 29.86 12.1742 34.6C12.1742 39.34 12.8942 43.465 14.3342 46.975C15.7742 50.455 17.9342 53.17 20.8142 55.12C23.7242 57.07 27.3542 58.075 31.7042 58.135C34.9742 58.165 37.8392 57.58 40.2992 56.38C42.7592 55.15 44.7692 53.305 46.3292 50.845C47.8892 48.355 48.9392 45.25 49.4792 41.53H38.0492V33.025H60.9992C61.0592 33.505 61.1042 34.21 61.1342 35.14C61.1642 36.07 61.1792 36.625 61.1792 36.805C61.1792 42.925 59.9642 48.37 57.5342 53.14C55.1342 57.88 51.6842 61.6 47.1842 64.3C42.6842 67 37.2992 68.35 31.0292 68.35Z" fill="#EB67A6"/>
<path d="M70.2172 67V18.4H79.8022V30.235L78.6322 28.705C79.2322 27.085 80.0272 25.615 81.0172 24.295C82.0372 22.945 83.2522 21.835 84.6622 20.965C85.8622 20.155 87.1822 19.525 88.6222 19.075C90.0922 18.595 91.5922 18.31 93.1222 18.22C94.6522 18.1 96.1372 18.16 97.5772 18.4V28.525C96.1372 28.105 94.4722 27.97 92.5822 28.12C90.7222 28.27 89.0422 28.795 87.5422 29.695C86.0422 30.505 84.8122 31.54 83.8522 32.8C82.9222 34.06 82.2322 35.5 81.7822 37.12C81.3322 38.71 81.1072 40.435 81.1072 42.295V67H70.2172Z" fill="#EB67A6"/>
<path d="M126.751 68.35C121.891 68.35 117.646 67.255 114.016 65.065C110.386 62.875 107.566 59.86 105.556 56.02C103.576 52.15 102.586 47.71 102.586 42.7C102.586 37.6 103.606 33.13 105.646 29.29C107.686 25.45 110.521 22.45 114.151 20.29C117.781 18.13 121.981 17.05 126.751 17.05C131.641 17.05 135.901 18.145 139.531 20.335C143.161 22.525 145.981 25.555 147.991 29.425C150.001 33.265 151.006 37.69 151.006 42.7C151.006 47.74 149.986 52.195 147.946 56.065C145.936 59.905 143.116 62.92 139.486 65.11C135.856 67.27 131.611 68.35 126.751 68.35ZM126.751 58.18C131.071 58.18 134.281 56.74 136.381 53.86C138.481 50.98 139.531 47.26 139.531 42.7C139.531 37.99 138.466 34.24 136.336 31.45C134.206 28.63 131.011 27.22 126.751 27.22C123.841 27.22 121.441 27.88 119.551 29.2C117.691 30.49 116.311 32.305 115.411 34.645C114.511 36.955 114.061 39.64 114.061 42.7C114.061 47.41 115.126 51.175 117.256 53.995C119.416 56.785 122.581 58.18 126.751 58.18Z" fill="#EB67A6"/>
<path d="M169.512 67L154.663 18.31L165.283 18.4L174.777 49.585L184.408 18.4H193.543L203.128 49.585L212.668 18.4H223.288L208.438 67H199.978L188.952 33.565L177.973 67H169.512Z" fill="#EB67A6"/>
<path d="M232.309 11.02V1.07498H243.154V11.02H232.309ZM232.309 67V18.4H243.154V67H232.309Z" fill="#EB67A6"/>
<path d="M290.248 67V43.6C290.248 42.07 290.143 40.375 289.933 38.515C289.723 36.655 289.228 34.87 288.448 33.16C287.698 31.42 286.558 29.995 285.028 28.885C283.528 27.775 281.488 27.22 278.908 27.22C277.528 27.22 276.163 27.445 274.813 27.895C273.463 28.345 272.233 29.125 271.123 30.235C270.043 31.315 269.173 32.815 268.513 34.735C267.853 36.625 267.523 39.055 267.523 42.025L261.088 39.28C261.088 35.14 261.883 31.39 263.473 28.03C265.093 24.67 267.463 22 270.583 20.02C273.703 18.01 277.543 17.005 282.103 17.005C285.703 17.005 288.673 17.605 291.013 18.805C293.353 20.005 295.213 21.535 296.593 23.395C297.973 25.255 298.993 27.235 299.653 29.335C300.313 31.435 300.733 33.43 300.913 35.32C301.123 37.18 301.228 38.695 301.228 39.865V67H290.248ZM256.543 67V18.4H266.218V33.475H267.523V67H256.543Z" fill="#EB67A6"/>
<path d="M333.401 89.95C330.701 89.95 328.106 89.53 325.616 88.69C323.156 87.85 320.936 86.635 318.956 85.045C316.976 83.485 315.356 81.595 314.096 79.375L324.086 74.425C325.016 76.195 326.321 77.5 328.001 78.34C329.711 79.21 331.526 79.645 333.446 79.645C335.696 79.645 337.706 79.24 339.476 78.43C341.246 77.65 342.611 76.48 343.571 74.92C344.561 73.39 345.026 71.47 344.966 69.16V55.345H346.316V18.4H355.811V69.34C355.811 70.57 355.751 71.74 355.631 72.85C355.541 73.99 355.376 75.1 355.136 76.18C354.416 79.33 353.036 81.91 350.996 83.92C348.956 85.96 346.421 87.475 343.391 88.465C340.391 89.455 337.061 89.95 333.401 89.95ZM332.456 68.35C327.986 68.35 324.086 67.225 320.756 64.975C317.426 62.725 314.846 59.665 313.016 55.795C311.186 51.925 310.271 47.56 310.271 42.7C310.271 37.78 311.186 33.4 313.016 29.56C314.876 25.69 317.501 22.645 320.891 20.425C324.281 18.175 328.271 17.05 332.861 17.05C337.481 17.05 341.351 18.175 344.471 20.425C347.621 22.645 350.006 25.69 351.626 29.56C353.246 33.43 354.056 37.81 354.056 42.7C354.056 47.53 353.246 51.895 351.626 55.795C350.006 59.665 347.591 62.725 344.381 64.975C341.171 67.225 337.196 68.35 332.456 68.35ZM334.121 58.63C337.031 58.63 339.371 57.97 341.141 56.65C342.941 55.3 344.246 53.425 345.056 51.025C345.896 48.625 346.316 45.85 346.316 42.7C346.316 39.52 345.896 36.745 345.056 34.375C344.246 31.975 342.971 30.115 341.231 28.795C339.491 27.445 337.241 26.77 334.481 26.77C331.571 26.77 329.171 27.49 327.281 28.93C325.391 30.34 323.996 32.26 323.096 34.69C322.196 37.09 321.746 39.76 321.746 42.7C321.746 45.67 322.181 48.37 323.051 50.8C323.951 53.2 325.316 55.105 327.146 56.515C328.976 57.925 331.301 58.63 334.121 58.63Z" fill="#EB67A6"/>
</svg>
