<svg width="356" height="90" viewBox="0 0 356 90" fill="none" xmlns="http://www.w3.org/2000/svg">
<path d="M19.195 66.145L18.4366 67.9956L18.4457 67.9993L18.4548 68.003L19.195 66.145ZM9.52 59.575L8.076 60.9588L8.08352 60.9666L9.52 59.575ZM3.04 49L1.16514 49.6964L1.16679 49.7008L3.04 49ZM4.66 16.465L6.42938 17.3974L6.43166 17.393L4.66 16.465ZM15.505 4.89999L16.5106 6.6288L16.519 6.62386L15.505 4.89999ZM49.975 6.43L48.7256 7.99173L48.7311 7.99615L48.7367 8.00053L49.975 6.43ZM59.47 22L59.7832 23.9753L61.9331 23.6345L61.4118 21.5211L59.47 22ZM48.4 23.755L46.4953 24.3651L47.0187 25.999L48.7132 25.7303L48.4 23.755ZM42.37 14.575L41.0945 16.1155L41.1044 16.1237L42.37 14.575ZM31.705 11.11L31.6774 13.1098L31.6912 13.11H31.705V11.11ZM20.86 13.945L21.9813 15.6011L21.9813 15.6011L20.86 13.945ZM14.335 22.18L12.4879 21.413L12.4851 21.4197L12.4824 21.4264L14.335 22.18ZM14.335 46.975L12.4847 47.7341L12.487 47.7397L14.335 46.975ZM20.815 55.12L19.6937 56.7761L19.7017 56.7815L20.815 55.12ZM31.705 58.135L31.6774 60.1348L31.6867 60.1349L31.705 58.135ZM40.3 56.38L41.1768 58.1775L41.1857 58.1732L41.1944 58.1689L40.3 56.38ZM46.33 50.845L48.019 51.9161L48.0248 51.9068L46.33 50.845ZM49.48 41.53L51.4593 41.8173L51.7913 39.53H49.48V41.53ZM38.05 41.53H36.05V43.53H38.05V41.53ZM38.05 33.025V31.025H36.05V33.025H38.05ZM61 33.025L62.9846 32.7769L62.7656 31.025H61V33.025ZM61.135 35.14L63.134 35.0755L63.134 35.0755L61.135 35.14ZM57.535 53.14L55.7529 52.2321L55.7507 52.2365L57.535 53.14ZM47.185 64.3L48.214 66.015L48.214 66.015L47.185 64.3ZM31.03 66.35C27.0688 66.35 23.3764 65.6579 19.9352 64.287L18.4548 68.003C22.3936 69.5721 26.5912 70.35 31.03 70.35V66.35ZM19.9534 64.2944C16.5523 62.9005 13.5573 60.8681 10.9565 58.1834L8.08352 60.9666C11.0627 64.0419 14.5177 66.3895 18.4366 67.9956L19.9534 64.2944ZM10.964 58.1912C8.41267 55.529 6.38909 52.2444 4.91321 48.2992L1.16679 49.7008C2.81091 54.0956 5.10733 57.861 8.07602 60.9588L10.964 58.1912ZM4.91485 48.3036C3.45266 44.367 2.7 39.8097 2.7 34.6H-1.3C-1.3 40.1903 -0.492664 45.233 1.16515 49.6964L4.91485 48.3036ZM2.7 34.6C2.7 27.7652 3.9741 22.0568 6.42938 17.3974L2.89062 15.5326C0.0659041 20.8932 -1.3 27.2748 -1.3 34.6H2.7ZM6.43166 17.393C8.90987 12.6619 12.2698 9.0957 16.5106 6.62878L14.4994 3.17121C9.56025 6.0443 5.69013 10.1881 2.88834 15.537L6.43166 17.393ZM16.519 6.62386C20.7767 4.11933 25.5965 2.85 31.03 2.85V-1.15C24.9435 -1.15 19.4133 0.280661 14.491 3.17613L16.519 6.62386ZM31.03 2.85C38.7102 2.85 44.5344 4.63879 48.7256 7.99173L51.2244 4.86826C46.1156 0.781209 39.3098 -1.15 31.03 -1.15V2.85ZM48.7367 8.00053C53.0143 11.3732 55.9674 16.1504 57.5282 22.4789L61.4118 21.5211C59.6727 14.4696 56.2957 8.86676 51.2133 4.85946L48.7367 8.00053ZM59.1568 20.0247L48.0868 21.7797L48.7132 25.7303L59.7832 23.9753L59.1568 20.0247ZM50.3047 23.1449C48.9713 18.9822 46.7596 15.5793 43.6356 13.0263L41.1044 16.1237C43.5604 18.1307 45.3687 20.8478 46.4953 24.3651L50.3047 23.1449ZM43.6455 13.0345C40.4307 10.3728 36.3971 9.11 31.705 9.11V13.11C35.6529 13.11 38.7293 14.1572 41.0945 16.1155L43.6455 13.0345ZM31.7326 9.11019C27.0767 9.04597 23.034 10.0577 19.7387 12.2889L21.9813 15.6011C24.446 13.9323 27.6333 13.054 31.6774 13.1098L31.7326 9.11019ZM19.7387 12.2889C16.5024 14.4801 14.0919 17.5504 12.4879 21.413L16.1821 22.947C17.5181 19.7296 19.4576 17.3099 21.9813 15.6011L19.7387 12.2889ZM12.4824 21.4264C10.9247 25.2557 10.175 29.6617 10.175 34.6H14.175C14.175 30.0583 14.8653 26.1843 16.1876 22.9336L12.4824 21.4264ZM10.175 34.6C10.175 39.5377 10.9245 43.9313 12.4847 47.7341L16.1853 46.2159C14.8655 42.9987 14.175 39.1423 14.175 34.6H10.175ZM12.487 47.7397C14.0637 51.5503 16.4624 54.5883 19.6937 56.7761L21.9363 53.4639C19.4076 51.7517 17.4863 49.3597 16.183 46.2103L12.487 47.7397ZM19.7017 56.7815C23.0031 58.9938 27.0341 60.0708 31.6774 60.1348L31.7326 56.1352C27.6759 56.0792 24.4469 55.1462 21.9284 53.4585L19.7017 56.7815ZM31.6867 60.1349C35.2069 60.1672 38.389 59.5375 41.1768 58.1775L39.4232 54.5825C37.291 55.6225 34.7431 56.1628 31.7233 56.1351L31.6867 60.1349ZM41.1944 58.1689C43.9991 56.7665 46.2763 54.6642 48.019 51.9161L44.641 49.7739C43.2637 51.9458 41.5209 53.5335 39.4056 54.5911L41.1944 58.1689ZM48.0248 51.9068C49.7675 49.1252 50.89 45.7385 51.4593 41.8173L47.5007 41.2427C46.99 44.7615 46.0125 47.5847 44.6352 49.7832L48.0248 51.9068ZM49.48 39.53H38.05V43.53H49.48V39.53ZM40.05 41.53V33.025H36.05V41.53H40.05ZM38.05 35.025H61V31.025H38.05V35.025ZM59.0154 33.2731C59.0638 33.6597 59.1066 34.2909 59.136 35.2045L63.134 35.0755C63.1034 34.1291 63.0562 33.3503 62.9846 32.7769L59.0154 33.2731ZM59.136 35.2045C59.1666 36.1518 59.18 36.6657 59.18 36.805H63.18C63.18 36.5843 63.1634 35.9881 63.134 35.0755L59.136 35.2045ZM59.18 36.805C59.18 42.6549 58.0204 47.7812 55.7529 52.2321L59.3171 54.0479C61.9096 48.9588 63.18 43.1951 63.18 36.805H59.18ZM55.7507 52.2365C53.5187 56.6447 50.3286 60.0815 46.156 62.585L48.214 66.015C53.0414 63.1185 56.7513 59.1153 59.3193 54.0434L55.7507 52.2365ZM46.156 62.585C42.0226 65.0651 37.0085 66.35 31.03 66.35V70.35C37.5915 70.35 43.3474 68.9349 48.214 66.015L46.156 62.585ZM70.218 67H68.218V69H70.218V67ZM70.218 18.4V16.4H68.218V18.4H70.218ZM79.803 18.4H81.803V16.4H79.803V18.4ZM79.803 30.235L78.2143 31.4499L81.803 36.1428V30.235H79.803ZM78.633 28.705L76.7575 28.0104L76.3746 29.0442L77.0443 29.9199L78.633 28.705ZM81.018 24.295L79.4222 23.0893L79.418 23.095L81.018 24.295ZM84.663 20.965L85.7132 22.6671L85.748 22.6456L85.7819 22.6227L84.663 20.965ZM88.623 19.075L89.2195 20.984L89.2317 20.9802L89.2438 20.9762L88.623 19.075ZM93.123 18.22L93.2404 20.2165L93.2599 20.2154L93.2794 20.2139L93.123 18.22ZM97.578 18.4H99.578V16.7057L97.9068 16.4272L97.578 18.4ZM97.578 28.525L97.018 30.445L99.578 31.1917V28.525H97.578ZM92.583 28.12L92.4247 26.1263L92.4222 26.1265L92.583 28.12ZM87.543 29.695L88.4933 31.4548L88.5331 31.4333L88.572 31.41L87.543 29.695ZM83.853 32.8L82.2621 31.5879L82.2529 31.6L82.2438 31.6123L83.853 32.8ZM81.783 37.12L83.7074 37.6646L83.71 37.6553L81.783 37.12ZM81.108 67V69H83.108V67H81.108ZM72.218 67V18.4H68.218V67H72.218ZM70.218 20.4H79.803V16.4H70.218V20.4ZM77.803 18.4V30.235H81.803V18.4H77.803ZM81.3917 29.0201L80.2217 27.4901L77.0443 29.9199L78.2143 31.4499L81.3917 29.0201ZM80.5085 29.3996C81.0446 27.952 81.749 26.6536 82.618 25.495L79.418 23.095C78.3069 24.5764 77.4213 26.218 76.7575 28.0104L80.5085 29.3996ZM82.6137 25.5007C83.4875 24.3442 84.5188 23.4041 85.7132 22.6671L83.6128 19.2629C81.9872 20.2659 80.5885 21.5458 79.4222 23.0893L82.6137 25.5007ZM85.7819 22.6227C86.8142 21.9259 87.9571 21.3785 89.2195 20.984L88.0264 17.166C86.4088 17.6715 84.9117 18.3841 83.544 19.3073L85.7819 22.6227ZM89.2438 20.9762C90.5522 20.549 91.8831 20.2964 93.2404 20.2165L93.0055 16.2234C91.3028 16.3236 89.6337 16.641 88.0022 17.1738L89.2438 20.9762ZM93.2794 20.2139C94.6557 20.1059 95.9774 20.1608 97.2492 20.3728L97.9068 16.4272C96.2985 16.1592 94.6503 16.0941 92.9666 16.2261L93.2794 20.2139ZM95.578 18.4V28.525H99.578V18.4H95.578ZM98.138 26.605C96.4126 26.1018 94.4955 25.9619 92.4247 26.1263L92.7412 30.1137C94.4505 29.9781 95.8634 30.1082 97.018 30.445L98.138 26.605ZM92.4222 26.1265C90.2762 26.2995 88.2955 26.9111 86.514 27.98L88.572 31.41C89.7904 30.6789 91.1698 30.2405 92.7437 30.1135L92.4222 26.1265ZM86.5927 27.9352C84.862 28.8697 83.4071 30.0851 82.2621 31.5879L85.4438 34.0121C86.2188 32.9949 87.2239 32.1402 88.4933 31.4548L86.5927 27.9352ZM82.2438 31.6123C81.1586 33.0826 80.3664 34.7471 79.8559 36.5847L83.71 37.6553C84.0996 36.2529 84.6873 35.0374 85.4621 33.9877L82.2438 31.6123ZM79.8586 36.5754C79.3526 38.3632 79.108 40.2736 79.108 42.295H83.108C83.108 40.5964 83.3134 39.0568 83.7074 37.6646L79.8586 36.5754ZM79.108 42.295V67H83.108V42.295H79.108ZM81.108 65H70.218V69H81.108V65ZM114.016 65.065L115.049 63.3525L115.049 63.3525L114.016 65.065ZM105.556 56.02L103.776 56.931L103.78 56.9392L103.784 56.9475L105.556 56.02ZM105.646 29.29L103.88 28.3517L103.88 28.3517L105.646 29.29ZM114.151 20.29L113.129 18.5713L113.129 18.5713L114.151 20.29ZM139.531 20.335L140.564 18.6225L140.564 18.6225L139.531 20.335ZM147.991 29.425L146.216 30.3468L146.219 30.3525L147.991 29.425ZM147.946 56.065L146.177 55.1324L146.174 55.1375L147.946 56.065ZM139.486 65.11L140.509 66.8288L140.519 66.8225L139.486 65.11ZM136.381 53.86L134.765 52.6817L134.765 52.6817L136.381 53.86ZM136.336 31.45L134.74 32.6554L134.747 32.6636L136.336 31.45ZM119.551 29.2L120.691 30.8434L120.697 30.8397L119.551 29.2ZM115.411 34.645L117.275 35.3711L117.278 35.363L115.411 34.645ZM117.256 53.995L115.66 55.2004L115.668 55.2099L115.675 55.2193L117.256 53.995ZM126.751 66.35C122.201 66.35 118.324 65.3282 115.049 63.3525L112.983 66.7775C116.968 69.1818 121.582 70.35 126.751 70.35V66.35ZM115.049 63.3525C111.74 61.356 109.172 58.6158 107.328 55.0925L103.784 56.9475C105.96 61.1042 109.032 64.394 112.983 66.7775L115.049 63.3525ZM107.337 55.109C105.522 51.5612 104.586 47.4417 104.586 42.7H100.586C100.586 47.9783 101.631 52.7388 103.776 56.931L107.337 55.109ZM104.586 42.7C104.586 37.8705 105.551 33.7332 107.413 30.2283L103.88 28.3517C101.662 32.5268 100.586 37.3294 100.586 42.7H104.586ZM107.413 30.2283C109.286 26.7016 111.868 23.9758 115.174 22.0087L113.129 18.5713C109.174 20.9242 106.087 24.1984 103.88 28.3517L107.413 30.2283ZM115.174 22.0087C118.456 20.0557 122.294 19.05 126.751 19.05V15.05C121.669 15.05 117.106 16.2043 113.129 18.5713L115.174 22.0087ZM126.751 19.05C131.334 19.05 135.225 20.0729 138.498 22.0475L140.564 18.6225C136.577 16.2171 131.949 15.05 126.751 15.05V19.05ZM138.498 22.0475C141.803 24.0416 144.371 26.7938 146.216 30.3468L149.766 28.5032C147.592 24.3162 144.519 21.0084 140.564 18.6225L138.498 22.0475ZM146.219 30.3525C148.058 33.8646 149.006 37.9625 149.006 42.7H153.006C153.006 37.4175 151.945 32.6654 149.763 28.4975L146.219 30.3525ZM149.006 42.7C149.006 47.4647 148.044 51.5909 146.177 55.1324L149.716 56.9976C151.929 52.7991 153.006 48.0153 153.006 42.7H149.006ZM146.174 55.1375C144.33 58.6608 141.762 61.401 138.453 63.3975L140.519 66.8225C144.47 64.439 147.542 61.1492 149.718 56.9925L146.174 55.1375ZM138.464 63.3913C135.187 65.3409 131.306 66.35 126.751 66.35V70.35C131.916 70.35 136.526 69.1991 140.509 66.8287L138.464 63.3913ZM126.751 60.18C131.558 60.18 135.439 58.5467 137.997 55.0383L134.765 52.6817C133.123 54.9333 130.585 56.18 126.751 56.18V60.18ZM137.997 55.0383C140.409 51.7312 141.531 47.5648 141.531 42.7H137.531C137.531 46.9552 136.554 50.2288 134.765 52.6817L137.997 55.0383ZM141.531 42.7C141.531 37.7003 140.4 33.4772 137.926 30.2364L134.747 32.6636C136.532 35.0028 137.531 38.2797 137.531 42.7H141.531ZM137.932 30.2446C135.345 26.8192 131.494 25.22 126.751 25.22V29.22C130.529 29.22 133.068 30.4408 134.74 32.6554L137.932 30.2446ZM126.751 25.22C123.54 25.22 120.711 25.9508 118.406 27.5603L120.697 30.8397C122.172 29.8092 124.143 29.22 126.751 29.22V25.22ZM118.412 27.5566C116.187 29.0995 114.573 31.2546 113.545 33.927L117.278 35.363C118.05 33.3554 119.196 31.8805 120.691 30.8434L118.412 27.5566ZM113.548 33.9189C112.539 36.5076 112.061 39.4479 112.061 42.7H116.061C116.061 39.8321 116.483 37.4024 117.275 35.3711L113.548 33.9189ZM112.061 42.7C112.061 47.7012 113.193 51.9337 115.66 55.2004L118.852 52.7896C117.06 50.4163 116.061 47.1188 116.061 42.7H112.061ZM115.675 55.2193C118.285 58.5905 122.089 60.18 126.751 60.18V56.18C123.074 56.18 120.548 54.9795 118.838 52.7707L115.675 55.2193ZM169.513 67L167.6 67.5834L168.032 69H169.513V67ZM154.663 18.31L154.68 16.3101L151.955 16.287L152.75 18.8934L154.663 18.31ZM165.283 18.4L167.197 17.8175L166.769 16.4125L165.3 16.4001L165.283 18.4ZM174.778 49.585L172.865 50.1675L174.765 56.4071L176.689 50.1751L174.778 49.585ZM184.408 18.4V16.4H182.933L182.497 17.8099L184.408 18.4ZM193.543 18.4L195.455 17.8124L195.021 16.4H193.543V18.4ZM203.128 49.585L201.217 50.1726L203.133 56.4071L205.041 50.1701L203.128 49.585ZM212.668 18.4V16.4H211.189L210.756 17.8149L212.668 18.4ZM223.288 18.4L225.201 18.9844L225.991 16.4H223.288V18.4ZM208.438 67V69H209.918L210.351 67.5844L208.438 67ZM199.978 67L198.079 67.6263L198.532 69H199.978V67ZM188.953 33.565L190.853 32.9387L188.949 27.1667L187.053 32.941L188.953 33.565ZM177.973 67V69H179.422L179.873 67.624L177.973 67ZM171.426 66.4166L156.576 17.7266L152.75 18.8934L167.6 67.5834L171.426 66.4166ZM154.646 20.3099L165.266 20.3999L165.3 16.4001L154.68 16.3101L154.646 20.3099ZM163.37 18.9825L172.865 50.1675L176.692 49.0025L167.197 17.8175L163.37 18.9825ZM176.689 50.1751L186.319 18.9901L182.497 17.8099L172.867 48.9949L176.689 50.1751ZM184.408 20.4H193.543V16.4H184.408V20.4ZM191.632 18.9876L201.217 50.1726L205.04 48.9974L195.455 17.8124L191.632 18.9876ZM205.041 50.1701L214.581 18.9851L210.756 17.8149L201.216 48.9999L205.041 50.1701ZM212.668 20.4H223.288V16.4H212.668V20.4ZM221.376 17.8156L206.526 66.4156L210.351 67.5844L225.201 18.9844L221.376 17.8156ZM208.438 65H199.978V69H208.438V65ZM201.878 66.3737L190.853 32.9387L187.054 34.1913L198.079 67.6263L201.878 66.3737ZM187.053 32.941L176.073 66.376L179.873 67.624L190.853 34.189L187.053 32.941ZM177.973 65H169.513V69H177.973V65ZM232.309 11.02H230.309V13.02H232.309V11.02ZM232.309 1.075V-0.925002H230.309V1.075H232.309ZM243.154 1.075H245.154V-0.925002H243.154V1.075ZM243.154 11.02V13.02H245.154V11.02H243.154ZM232.309 67H230.309V69H232.309V67ZM232.309 18.4V16.4H230.309V18.4H232.309ZM243.154 18.4H245.154V16.4H243.154V18.4ZM243.154 67V69H245.154V67H243.154ZM234.309 11.02V1.075H230.309V11.02H234.309ZM232.309 3.075H243.154V-0.925002H232.309V3.075ZM241.154 1.075V11.02H245.154V1.075H241.154ZM243.154 9.02H232.309V13.02H243.154V9.02ZM234.309 67V18.4H230.309V67H234.309ZM232.309 20.4H243.154V16.4H232.309V20.4ZM241.154 18.4V67H245.154V18.4H241.154ZM243.154 65H232.309V69H243.154V65ZM290.249 67H288.249V69H290.249V67ZM289.934 38.515L291.921 38.2906L291.921 38.2906L289.934 38.515ZM288.449 33.16L286.612 33.9517L286.621 33.9709L286.629 33.99L288.449 33.16ZM285.029 28.885L283.839 30.4927L283.847 30.4983L283.855 30.5038L285.029 28.885ZM274.814 27.895L275.446 29.7924L275.446 29.7924L274.814 27.895ZM271.124 30.235L269.71 28.8208L269.71 28.8208L271.124 30.235ZM268.514 34.735L270.402 35.3944L270.405 35.3852L268.514 34.735ZM267.524 42.025L266.739 43.8646L269.524 45.0525V42.025H267.524ZM261.089 39.28H259.089V40.6012L260.304 41.1196L261.089 39.28ZM263.474 28.03L261.672 27.1614L261.669 27.1679L261.666 27.1745L263.474 28.03ZM270.584 20.02L271.656 21.7087L271.667 21.7013L270.584 20.02ZM291.014 18.805L291.927 17.0254L291.927 17.0254L291.014 18.805ZM296.594 23.395L294.988 24.5867L294.988 24.5867L296.594 23.395ZM299.654 29.335L301.562 28.7353L301.562 28.7353L299.654 29.335ZM300.914 35.32L298.923 35.5096L298.925 35.527L298.927 35.5444L300.914 35.32ZM301.229 67V69H303.229V67H301.229ZM256.544 67H254.544V69H256.544V67ZM256.544 18.4V16.4H254.544V18.4H256.544ZM266.219 18.4H268.219V16.4H266.219V18.4ZM266.219 33.475H264.219V35.475H266.219V33.475ZM267.524 33.475H269.524V31.475H267.524V33.475ZM267.524 67V69H269.524V67H267.524ZM292.249 67V43.6H288.249V67H292.249ZM292.249 43.6C292.249 41.9807 292.138 40.2094 291.921 38.2906L287.947 38.7394C288.15 40.5406 288.249 42.1593 288.249 43.6H292.249ZM291.921 38.2906C291.688 36.2203 291.136 34.231 290.269 32.33L286.629 33.99C287.322 35.509 287.76 37.0897 287.947 38.7394L291.921 38.2906ZM290.286 32.3683C289.394 30.2989 288.025 28.5879 286.203 27.2662L283.855 30.5038C285.093 31.4021 286.004 32.5411 286.612 33.9517L290.286 32.3683ZM286.219 27.2773C284.265 25.8313 281.757 25.22 278.909 25.22V29.22C281.221 29.22 282.793 29.7187 283.839 30.4927L286.219 27.2773ZM278.909 25.22C277.307 25.22 275.729 25.4818 274.182 25.9976L275.446 29.7924C276.599 29.4082 277.751 29.22 278.909 29.22V25.22ZM274.182 25.9976C272.508 26.5556 271.016 27.5142 269.71 28.8208L272.538 31.6492C273.452 30.7358 274.42 30.1344 275.446 29.7924L274.182 25.9976ZM269.71 28.8208C268.356 30.1746 267.35 31.9677 266.623 34.0848L270.405 35.3852C270.998 33.6623 271.732 32.4554 272.538 31.6492L269.71 28.8208ZM266.626 34.0756C265.865 36.2537 265.524 38.9284 265.524 42.025H269.524C269.524 39.1816 269.843 36.9963 270.402 35.3944L266.626 34.0756ZM268.309 40.1854L261.874 37.4404L260.304 41.1196L266.739 43.8646L268.309 40.1854ZM263.089 39.28C263.089 35.4019 263.832 31.949 265.282 28.8855L261.666 27.1745C259.936 30.831 259.089 34.8781 259.089 39.28H263.089ZM265.276 28.8986C266.735 25.8713 268.854 23.4867 271.656 21.7087L269.512 18.3313C266.074 20.5132 263.453 23.4687 261.672 27.1614L265.276 28.8986ZM271.667 21.7013C274.397 19.9424 277.84 19.005 282.104 19.005V15.005C277.248 15.005 273.011 16.0775 269.501 18.3387L271.667 21.7013ZM282.104 19.005C285.498 19.005 288.128 19.5728 290.101 20.5846L291.927 17.0254C289.22 15.6372 285.91 15.005 282.104 15.005V19.005ZM290.101 20.5846C292.205 21.6636 293.814 23.0048 294.988 24.5867L298.2 22.2033C296.614 20.0652 294.503 18.3464 291.927 17.0254L290.101 20.5846ZM294.988 24.5867C296.242 26.277 297.156 28.0583 297.746 29.9347L301.562 28.7353C300.832 26.4116 299.706 24.233 298.2 22.2033L294.988 24.5867ZM297.746 29.9347C298.371 31.9218 298.758 33.7788 298.923 35.5096L302.905 35.1304C302.71 33.0812 302.257 30.9482 301.562 28.7353L297.746 29.9347ZM298.927 35.5444C299.133 37.3683 299.229 38.8006 299.229 39.865H303.229C303.229 38.5894 303.115 36.9917 302.901 35.0956L298.927 35.5444ZM299.229 39.865V67H303.229V39.865H299.229ZM301.229 65H290.249V69H301.229V65ZM258.544 67V18.4H254.544V67H258.544ZM256.544 20.4H266.219V16.4H256.544V20.4ZM264.219 18.4V33.475H268.219V18.4H264.219ZM266.219 35.475H267.524V31.475H266.219V35.475ZM265.524 33.475V67H269.524V33.475H265.524ZM267.524 65H256.544V69H267.524V65ZM325.617 88.69L324.971 90.5827L324.978 90.5851L325.617 88.69ZM318.957 85.045L320.209 83.4856L320.202 83.4798L320.195 83.474L318.957 85.045ZM314.097 79.375L313.209 77.5829L311.313 78.5222L312.358 80.3622L314.097 79.375ZM324.087 74.425L325.857 73.4947L324.949 71.7658L323.199 72.6329L324.087 74.425ZM328.002 78.34L328.909 76.5574L328.896 76.5511L328.002 78.34ZM339.477 78.43L338.67 76.5998L338.657 76.6055L338.645 76.6114L339.477 78.43ZM343.572 74.92L341.893 73.8335L341.88 73.8525L341.869 73.8718L343.572 74.92ZM344.967 69.16H342.967V69.186L342.968 69.2119L344.967 69.16ZM344.967 55.345V53.345H342.967V55.345H344.967ZM346.317 55.345V57.345H348.317V55.345H346.317ZM346.317 18.4V16.4H344.317V18.4H346.317ZM355.812 18.4H357.812V16.4H355.812V18.4ZM355.632 72.85L353.643 72.635L353.64 72.6638L353.638 72.6926L355.632 72.85ZM355.137 76.18L357.087 76.6257L357.089 76.6139L355.137 76.18ZM350.997 83.92L349.593 82.4954L349.588 82.5005L349.583 82.5058L350.997 83.92ZM343.392 88.465L342.771 86.5639L342.765 86.5657L343.392 88.465ZM320.757 64.975L321.877 63.3178L321.877 63.3178L320.757 64.975ZM313.017 55.795L311.209 56.65L311.209 56.65L313.017 55.795ZM313.017 29.56L311.214 28.6936L311.211 28.6996L313.017 29.56ZM320.892 20.425L321.988 22.0982L321.998 22.0914L320.892 20.425ZM344.472 20.425L343.302 22.0472L343.311 22.0535L343.32 22.0598L344.472 20.425ZM351.627 55.795L353.472 56.5673L353.474 56.5622L351.627 55.795ZM344.382 64.975L345.53 66.6127L345.53 66.6127L344.382 64.975ZM341.142 56.65L342.338 58.2533L342.342 58.25L341.142 56.65ZM345.057 51.025L343.169 50.3643L343.165 50.3748L343.162 50.3854L345.057 51.025ZM345.057 34.375L343.162 35.0146L343.167 35.0289L343.172 35.0431L345.057 34.375ZM341.232 28.795L340.006 30.3752L340.014 30.3818L340.023 30.3884L341.232 28.795ZM327.282 28.93L328.478 30.533L328.486 30.527L328.494 30.5209L327.282 28.93ZM323.097 34.69L324.97 35.3922L324.972 35.3846L323.097 34.69ZM323.052 50.8L321.169 51.4741L321.174 51.4882L321.179 51.5022L323.052 50.8ZM327.147 56.515L325.926 58.0993L325.926 58.0993L327.147 56.515ZM333.402 87.95C330.913 87.95 328.535 87.5635 326.256 86.7949L324.978 90.5851C327.679 91.4965 330.491 91.95 333.402 91.95V87.95ZM326.263 86.7973C324.018 86.0306 322.004 84.9267 320.209 83.4856L317.705 86.6044C319.87 88.3433 322.296 89.6694 324.971 90.5827L326.263 86.7973ZM320.195 83.474C318.421 82.0764 316.97 80.3855 315.836 78.3878L312.358 80.3622C313.744 82.8045 315.533 84.8936 317.719 86.616L320.195 83.474ZM314.985 81.1671L324.975 76.2171L323.199 72.6329L313.209 77.5829L314.985 81.1671ZM322.316 75.3553C323.428 77.4708 325.028 79.0891 327.107 80.1289L328.896 76.5511C327.616 75.9109 326.606 74.9192 325.857 73.4947L322.316 75.3553ZM327.095 80.1226C329.086 81.1356 331.212 81.645 333.447 81.645V77.645C331.842 77.645 330.338 77.2844 328.909 76.5574L327.095 80.1226ZM333.447 81.645C335.94 81.645 338.24 81.1954 340.309 80.2486L338.645 76.6114C337.173 77.2846 335.454 77.645 333.447 77.645V81.645ZM340.283 80.2602C342.403 79.3262 344.09 77.8937 345.275 75.9682L341.869 73.8718C341.133 75.0663 340.091 75.9738 338.67 76.5998L340.283 80.2602ZM345.251 76.0065C346.512 74.0574 347.034 71.7131 346.966 69.1081L342.968 69.2119C343.02 71.2269 342.612 72.7226 341.893 73.8335L345.251 76.0065ZM346.967 69.16V55.345H342.967V69.16H346.967ZM344.967 57.345H346.317V53.345H344.967V57.345ZM348.317 55.345V18.4H344.317V55.345H348.317ZM346.317 20.4H355.812V16.4H346.317V20.4ZM353.812 18.4V69.34H357.812V18.4H353.812ZM353.812 69.34C353.812 70.5053 353.755 71.6032 353.643 72.635L357.62 73.065C357.749 71.8768 357.812 70.6347 357.812 69.34H353.812ZM353.638 72.6926C353.555 73.7427 353.404 74.7602 353.185 75.7461L357.089 76.6139C357.35 75.4398 357.529 74.2373 357.626 73.0074L353.638 72.6926ZM353.187 75.7344C352.541 78.5617 351.328 80.7862 349.593 82.4954L352.401 85.3447C354.746 83.0338 356.293 80.0983 357.087 76.6256L353.187 75.7344ZM349.583 82.5058C347.788 84.3009 345.534 85.6612 342.771 86.5639L344.013 90.3661C347.31 89.2888 350.126 87.6191 352.411 85.3342L349.583 82.5058ZM342.765 86.5657C339.997 87.4794 336.882 87.95 333.402 87.95V91.95C337.242 91.95 340.787 91.4306 344.019 90.3643L342.765 86.5657ZM332.457 66.35C328.339 66.35 324.839 65.3197 321.877 63.3178L319.637 66.6322C323.334 69.1303 327.634 70.35 332.457 70.35V66.35ZM321.877 63.3178C318.863 61.2818 316.512 58.5077 314.825 54.94L311.209 56.65C313.182 60.8223 315.99 64.1682 319.637 66.6322L321.877 63.3178ZM314.825 54.94C313.137 51.3714 312.272 47.3044 312.272 42.7H308.272C308.272 47.8156 309.236 52.4786 311.209 56.65L314.825 54.94ZM312.272 42.7C312.272 38.0312 313.139 33.9526 314.822 30.4204L311.211 28.6996C309.235 32.8474 308.272 37.5288 308.272 42.7H312.272ZM314.819 30.4264C316.532 26.8643 318.921 24.1066 321.988 22.0982L319.796 18.7518C316.083 21.1834 313.222 24.5157 311.214 28.6936L314.819 30.4264ZM321.998 22.0914C325.019 20.0861 328.613 19.05 332.862 19.05V15.05C327.931 15.05 323.545 16.2639 319.786 18.7586L321.998 22.0914ZM332.862 19.05C337.148 19.05 340.587 20.0889 343.302 22.0472L345.642 18.8028C342.117 16.2611 337.815 15.05 332.862 15.05V19.05ZM343.32 22.0598C346.135 24.044 348.294 26.7773 349.782 30.3323L353.472 28.7877C351.72 24.6027 349.109 21.246 345.624 18.7902L343.32 22.0598ZM349.782 30.3323C351.284 33.9206 352.057 38.0318 352.057 42.7H356.057C356.057 37.5882 355.21 32.9394 353.472 28.7877L349.782 30.3323ZM352.057 42.7C352.057 47.3043 351.285 51.4034 349.78 55.0278L353.474 56.5622C355.208 52.3866 356.057 47.7557 356.057 42.7H352.057ZM349.782 55.0227C348.297 58.5697 346.113 61.3195 343.234 63.3373L345.53 66.6127C349.071 64.1305 351.717 60.7603 353.472 56.5673L349.782 55.0227ZM343.234 63.3373C340.425 65.3058 336.874 66.35 332.457 66.35V70.35C337.52 70.35 341.918 69.1442 345.53 66.6127L343.234 63.3373ZM334.122 60.63C337.326 60.63 340.127 59.902 342.338 58.2533L339.946 55.0467C338.617 56.038 336.737 56.63 334.122 56.63V60.63ZM342.342 58.25C344.505 56.6276 346.029 54.3976 346.952 51.6646L343.162 50.3854C342.464 52.4524 341.379 53.9724 339.942 55.05L342.342 58.25ZM346.945 51.6857C347.874 49.0295 348.317 46.0233 348.317 42.7H344.317C344.317 45.6767 343.92 48.2205 343.169 50.3643L346.945 51.6857ZM348.317 42.7C348.317 39.3499 347.875 36.3397 346.942 33.7069L343.172 35.0431C343.919 37.1503 344.317 39.6901 344.317 42.7H348.317ZM346.952 33.7354C346.035 31.0183 344.548 28.8006 342.441 27.2016L340.023 30.3884C341.395 31.4294 342.459 32.9317 343.162 35.0146L346.952 33.7354ZM342.458 27.2148C340.286 25.53 337.571 24.77 334.482 24.77V28.77C336.912 28.77 338.697 29.36 340.006 30.3752L342.458 27.2148ZM334.482 24.77C331.235 24.77 328.381 25.5785 326.07 27.3391L328.494 30.5209C329.963 29.4015 331.909 28.77 334.482 28.77V24.77ZM326.086 27.327C323.856 28.9905 322.242 31.2405 321.221 33.9954L324.972 35.3846C325.752 33.2795 326.928 31.6895 328.478 30.533L326.086 27.327ZM321.224 33.9878C320.229 36.6427 319.747 39.555 319.747 42.7H323.747C323.747 39.965 324.165 37.5373 324.97 35.3922L321.224 33.9878ZM319.747 42.7C319.747 45.8657 320.211 48.7979 321.169 51.4741L324.935 50.1259C324.153 47.9421 323.747 45.4743 323.747 42.7H319.747ZM321.179 51.5022C322.195 54.2118 323.769 56.4374 325.926 58.0993L328.368 54.9307C326.864 53.7726 325.708 52.1882 324.925 50.0978L321.179 51.5022ZM325.926 58.0993C328.178 59.8341 330.96 60.63 334.122 60.63V56.63C331.643 56.63 329.776 56.0159 328.368 54.9307L325.926 58.0993Z" fill="#EB67A6"/>
</svg>
