<svg width="80" height="80" viewBox="0 0 80 80" fill="none" xmlns="http://www.w3.org/2000/svg">
<path fill-rule="evenodd" clip-rule="evenodd" d="M42.7372 9.86114C50.1665 10.2263 57.0893 13.2899 62.3768 18.581C68.0168 24.2245 71.1212 31.7263 71.1182 39.7041C71.1114 56.167 57.7092 69.562 41.2453 69.562C35.054 69.562 30.1341 67.6597 26.9573 65.9278L11.1211 70.0798L15.3592 54.6074C12.745 50.0794 11.3694 44.943 11.3716 39.6804C11.3782 23.2179 24.7792 9.82422 41.2449 9.82422L42.7372 9.86114ZM27.6909 60.5224L28.5977 61.0602C32.4099 63.3214 36.7797 64.5177 41.2351 64.5194H41.2452C54.9305 64.5194 66.0688 53.3863 66.0743 39.7024C66.0768 33.0713 63.4967 26.8361 58.8089 22.1454C54.1209 17.4543 47.887 14.8694 41.2551 14.8672C27.5593 14.8672 16.4208 25.9992 16.4153 39.6821C16.4135 44.3715 17.7261 48.9383 20.2116 52.8894L20.8019 53.8285L18.2936 62.9862L27.6909 60.5224ZM56.295 46.8043C56.1085 46.4929 55.6109 46.3063 54.8645 45.9328C54.1181 45.5594 50.4483 43.7545 49.7641 43.5053C49.0799 43.2567 48.5822 43.1323 48.0847 43.8789C47.5872 44.6257 46.1567 46.3063 45.7211 46.8043C45.2858 47.3021 44.8504 47.3645 44.1041 46.991C43.3577 46.6177 40.9526 45.8297 38.1015 43.288C35.8825 41.3097 34.3845 38.8667 33.949 38.1198C33.5137 37.373 33.9026 36.9691 34.2763 36.5972C34.6121 36.2628 35.0228 35.7258 35.396 35.2901C35.7693 34.8546 35.8936 34.5432 36.1425 34.0455C36.3912 33.5475 36.2668 33.112 36.0803 32.7385C35.8936 32.3649 34.4009 28.6927 33.7789 27.1988C33.1729 25.7442 32.5575 25.9411 32.0993 25.9181C31.6645 25.8966 31.1664 25.8919 30.6689 25.8919C30.1712 25.8919 29.3626 26.0784 28.6784 26.8255C27.9942 27.5723 26.0659 29.3774 26.0659 33.0493C26.0659 36.7217 28.7406 40.269 29.1138 40.767C29.487 41.2652 34.3771 48.8004 41.8648 52.0323C43.6457 52.801 45.0361 53.2599 46.1201 53.6038C47.9082 54.1716 49.5353 54.0916 50.8215 53.8994C52.2556 53.6853 55.2377 52.0946 55.8597 50.3521C56.4817 48.6091 56.4817 47.1154 56.295 46.8043Z" fill="white"/>
</svg>
