<svg xmlns="http://www.w3.org/2000/svg" width="358.943" height="91.956" viewBox="0 0 358.943 91.956">
  <path id="패스_8" data-name="패스 8" d="M327.031,87.964c-5.188-1.792-11.857-9.325-11.857-9.325l10.2-5.355a10.756,10.756,0,0,0,12.749,5.355c9.052-2.423,8.287-11.219,8.287-11.219l.128-5.552A22.5,22.5,0,0,1,308.98,45.149v-6a22.5,22.5,0,0,1,38.409-15.91l.038.039.131-5.709h9.307V65.125s1.272,16.533-9.088,21.632c-4.855,2.39-8.577,3.2-11.7,3.2A26.2,26.2,0,0,1,327.031,87.964Zm-7.052-47.406v1.667c0,7.444,4.156,16.771,13.5,16.425,8.506-.315,12.712-5.074,13.4-11.54l.1-4.4V39.15a13.516,13.516,0,0,0-13.5-13.5C326.036,25.649,319.979,33.114,319.979,40.559ZM113.22,64.215a22.376,22.376,0,0,1-8.437-9.068,28.517,28.517,0,0,1-2.993-13.3,28.165,28.165,0,0,1,3.06-13.41,22.565,22.565,0,0,1,8.5-9,26.311,26.311,0,0,1,25.38.045,22.527,22.527,0,0,1,8.46,9.067,28.349,28.349,0,0,1,3.015,13.3,28.273,28.273,0,0,1-3.038,13.342,22.533,22.533,0,0,1-8.482,9.045,26.407,26.407,0,0,1-25.47-.022Zm5.558-35.888a11.491,11.491,0,0,0-4.162,5.445,22.287,22.287,0,0,0-1.35,8.078q0,7.065,3.218,11.272t9.472,4.208q6.48,0,9.63-4.32t3.15-11.16q0-7.065-3.195-11.273t-9.585-4.208A12.285,12.285,0,0,0,118.778,28.328ZM18.517,65.272a27.72,27.72,0,0,1-9.675-6.547,30.29,30.29,0,0,1-6.5-10.6A41,41,0,0,1,0,33.75Q0,23.13,3.96,15.593A28.273,28.273,0,0,1,14.805,4.028,30.175,30.175,0,0,1,30.33,0Q42.3,0,49.3,5.558T58.77,21.15L47.7,22.905a19.141,19.141,0,0,0-6.03-9.2A16.234,16.234,0,0,0,31.005,10.26,18.447,18.447,0,0,0,20.16,13.1a17.833,17.833,0,0,0-6.5,8.235,32.509,32.509,0,0,0-2.182,12.42A32.3,32.3,0,0,0,13.635,46.1a17.682,17.682,0,0,0,6.5,8.167,19.533,19.533,0,0,0,10.868,3.015,18.788,18.788,0,0,0,8.6-1.778,14.815,14.815,0,0,0,6.03-5.535,23.663,23.663,0,0,0,3.15-9.292H37.35V32.175H60.3q.09.72.135,2.115t.045,1.665a35.531,35.531,0,0,1-3.623,16.313A27.049,27.049,0,0,1,46.485,63.45,30.826,30.826,0,0,1,30.33,67.5,31.226,31.226,0,0,1,18.517,65.272Zm51.017.958V17.683h9.41V25.1a17.217,17.217,0,0,1,6.245-5.792c4.085-2.138,11.644-1.931,11.644-1.931V27.668a15.9,15.9,0,0,0-11.644,2.354c-5.792,3.8-4.771,15.585-4.771,15.585V66.23ZM289.391,66.2s.058-16.345,0-25.4S287.022,25.7,276.624,26.421s-9.807,13.55-9.807,13.55V66.2h-11.2V17.731h9.421l.27,5.5s4-5.362,9.5-6.23c.062-.01,1.066-.267,1.071-.268,5.568-.869,11.131-1.162,18.153,3.945s6.369,19.3,6.369,19.3V66.2Zm-57.955-.051V17.55H242.28v48.6Zm-32.31,0L188.1,32.715,177.12,66.15h-8.46L153.81,17.46l10.62.09,9.495,31.185,9.63-31.185h9.135l9.585,31.185,9.54-31.185h10.62l-14.85,48.6Zm32.31-55.98V.225H242.28V10.17Z" transform="translate(1 1)" fill="#eb67a6" stroke="#eb67a6" stroke-width="2"/>
</svg>
